<svg xmlns="http://www.w3.org/2000/svg" xmlns:xlink="http://www.w3.org/1999/xlink" width="600" zoomAndPan="magnify" viewBox="0 0 450 149.999998" height="200" preserveAspectRatio="xMidYMid meet" version="1.0"><defs><g/><clipPath id="c4b94d70da"><path d="M 197.203125 0 L 252.703125 0 L 252.703125 75 L 197.203125 75 Z M 197.203125 0 " clip-rule="nonzero"/></clipPath><clipPath id="cff77c885b"><path d="M 29.632812 82.578125 L 53.632812 82.578125 L 53.632812 123.078125 L 29.632812 123.078125 Z M 29.632812 82.578125 " clip-rule="nonzero"/></clipPath><clipPath id="628d50859c"><path d="M 189.082031 83.476562 L 231.832031 83.476562 L 231.832031 123.976562 L 189.082031 123.976562 Z M 189.082031 83.476562 " clip-rule="nonzero"/></clipPath><clipPath id="9578e98489"><path d="M 423.96875 75 L 428.785156 75 L 428.785156 81 L 423.96875 81 Z M 423.96875 75 " clip-rule="nonzero"/></clipPath><clipPath id="c90892d7e5"><path d="M 429.460938 75 L 435.210938 75 L 435.210938 81 L 429.460938 81 Z M 429.460938 75 " clip-rule="nonzero"/></clipPath></defs><g clip-path="url(#c4b94d70da)"><path fill="#fbb040" d="M 224.949219 28.074219 L 234.179688 18.832031 L 252.660156 37.34375 L 234.179688 55.859375 L 244.054688 65.753906 L 234.828125 75 L 197.238281 37.34375 L 215.722656 18.832031 L 224.949219 28.074219 L 215.695312 37.34375 L 224.949219 46.617188 L 234.207031 37.34375 Z M 224.949219 9.585938 L 234.179688 18.828125 L 243.746094 9.242188 L 234.519531 0 Z M 224.949219 9.585938 " fill-opacity="1" fill-rule="nonzero"/></g><g fill="#393536" fill-opacity="1"><g transform="translate(20.081659, 120.939565)"><g/></g></g><g fill="#393536" fill-opacity="1"><g transform="translate(41.645874, 120.939565)"><g/></g></g><g fill="#393536" fill-opacity="1"><g transform="translate(63.208954, 120.939565)"><g><path d="M 17.84375 0.953125 C 15.675781 0.953125 13.585938 0.5625 11.578125 -0.21875 C 9.578125 -1 7.785156 -2.160156 6.203125 -3.703125 C 4.617188 -5.242188 3.363281 -7.164062 2.4375 -9.46875 C 1.519531 -11.78125 1.0625 -14.484375 1.0625 -17.578125 C 1.0625 -20.628906 1.519531 -23.304688 2.4375 -25.609375 C 3.363281 -27.921875 4.625 -29.847656 6.21875 -31.390625 C 7.820312 -32.929688 9.625 -34.101562 11.625 -34.90625 C 13.632812 -35.707031 15.707031 -36.109375 17.84375 -36.109375 C 20.007812 -36.109375 22.09375 -35.722656 24.09375 -34.953125 C 26.101562 -34.191406 27.894531 -33.039062 29.46875 -31.5 C 31.050781 -29.957031 32.300781 -28.019531 33.21875 -25.6875 C 34.144531 -23.363281 34.609375 -20.660156 34.609375 -17.578125 C 34.609375 -14.554688 34.144531 -11.882812 33.21875 -9.5625 C 32.300781 -7.238281 31.050781 -5.300781 29.46875 -3.75 C 27.894531 -2.207031 26.101562 -1.035156 24.09375 -0.234375 C 22.09375 0.554688 20.007812 0.953125 17.84375 0.953125 Z M 17.84375 -0.15625 C 19.789062 -0.15625 21.367188 -0.675781 22.578125 -1.71875 C 23.785156 -2.769531 24.664062 -4.566406 25.21875 -7.109375 C 25.769531 -9.648438 26.046875 -13.140625 26.046875 -17.578125 C 26.046875 -22.046875 25.769531 -25.546875 25.21875 -28.078125 C 24.664062 -30.617188 23.785156 -32.410156 22.578125 -33.453125 C 21.367188 -34.503906 19.789062 -35.03125 17.84375 -35.03125 C 15.925781 -35.03125 14.363281 -34.503906 13.15625 -33.453125 C 11.945312 -32.410156 11.066406 -30.617188 10.515625 -28.078125 C 9.960938 -25.546875 9.6875 -22.046875 9.6875 -17.578125 C 9.6875 -13.140625 9.960938 -9.648438 10.515625 -7.109375 C 11.066406 -4.566406 11.945312 -2.769531 13.15625 -1.71875 C 14.363281 -0.675781 15.925781 -0.15625 17.84375 -0.15625 Z M 17.84375 -0.15625 "/></g></g></g><g fill="#393536" fill-opacity="1"><g transform="translate(108.83908, 120.939565)"><g><path d="M 1.171875 0 L 1.171875 -0.53125 L 2.296875 -0.953125 C 3.429688 -1.421875 4 -2.328125 4 -3.671875 L 4 -31.46875 C 4 -32.882812 3.429688 -33.789062 2.296875 -34.1875 L 1.171875 -34.609375 L 1.171875 -35.140625 L 15.234375 -35.140625 C 18.992188 -35.140625 22.226562 -34.4375 24.9375 -33.03125 C 27.65625 -31.632812 29.75 -29.628906 31.21875 -27.015625 C 32.695312 -24.410156 33.4375 -21.28125 33.4375 -17.625 C 33.4375 -13.894531 32.640625 -10.71875 31.046875 -8.09375 C 29.453125 -5.46875 27.222656 -3.460938 24.359375 -2.078125 C 21.503906 -0.691406 18.140625 0 14.265625 0 Z M 11.984375 -1.0625 L 14.265625 -1.0625 C 16.828125 -1.0625 18.890625 -1.566406 20.453125 -2.578125 C 22.015625 -3.585938 23.15625 -5.289062 23.875 -7.6875 C 24.601562 -10.082031 24.96875 -13.378906 24.96875 -17.578125 C 24.96875 -21.765625 24.601562 -25.054688 23.875 -27.453125 C 23.15625 -29.847656 22.03125 -31.550781 20.5 -32.5625 C 18.976562 -33.570312 16.972656 -34.078125 14.484375 -34.078125 L 11.984375 -34.078125 Z M 11.984375 -1.0625 "/></g></g></g><g fill="#393536" fill-opacity="1"><g transform="translate(153.297859, 120.939565)"><g><path d="M 1.171875 0 L 1.171875 -0.53125 L 2.390625 -1.015625 C 2.992188 -1.265625 3.410156 -1.59375 3.640625 -2 C 3.878906 -2.40625 4 -2.960938 4 -3.671875 L 4 -31.46875 C 4 -32.175781 3.898438 -32.734375 3.703125 -33.140625 C 3.503906 -33.554688 3.066406 -33.890625 2.390625 -34.140625 L 1.171875 -34.609375 L 1.171875 -35.140625 L 26.671875 -35.140625 L 27 -26.9375 L 26.46875 -26.9375 L 24.171875 -31.953125 C 23.859375 -32.585938 23.519531 -33.097656 23.15625 -33.484375 C 22.800781 -33.878906 22.269531 -34.078125 21.5625 -34.078125 L 11.984375 -34.078125 L 11.984375 -18.6875 L 17.671875 -18.6875 C 18.390625 -18.6875 18.929688 -18.875 19.296875 -19.25 C 19.671875 -19.625 20 -20.128906 20.28125 -20.765625 L 21.359375 -22.890625 L 21.890625 -22.890625 L 21.890625 -13.3125 L 21.359375 -13.3125 L 20.28125 -15.546875 C 19.96875 -16.179688 19.632812 -16.6875 19.28125 -17.0625 C 18.925781 -17.4375 18.390625 -17.625 17.671875 -17.625 L 11.984375 -17.625 L 11.984375 -1.0625 L 22.734375 -1.0625 C 23.441406 -1.0625 23.988281 -1.25 24.375 -1.625 C 24.769531 -2 25.09375 -2.519531 25.34375 -3.1875 L 27.53125 -8.203125 L 28.0625 -8.203125 L 27.75 0 Z M 1.171875 0 "/></g></g></g><g fill="#393536" fill-opacity="1"><g transform="translate(192.803361, 120.939565)"><g/></g></g><g fill="#393536" fill-opacity="1"><g transform="translate(214.367576, 120.939565)"><g/></g></g><g fill="#393536" fill-opacity="1"><g transform="translate(235.930655, 120.939565)"><g><path d="M 1.171875 0 L 1.171875 -0.53125 L 2.296875 -0.90625 C 3.003906 -1.15625 3.460938 -1.484375 3.671875 -1.890625 C 3.890625 -2.296875 4 -2.875 4 -3.625 L 4 -31.46875 C 4 -32.175781 3.898438 -32.734375 3.703125 -33.140625 C 3.503906 -33.554688 3.066406 -33.890625 2.390625 -34.140625 L 1.171875 -34.609375 L 1.171875 -35.140625 L 16.40625 -35.140625 C 20.59375 -35.140625 23.800781 -34.347656 26.03125 -32.765625 C 28.269531 -31.191406 29.390625 -29.003906 29.390625 -26.203125 C 29.390625 -24.640625 28.800781 -23.078125 27.625 -21.515625 C 26.457031 -19.953125 24.613281 -18.742188 22.09375 -17.890625 L 29.5 -3.1875 C 29.820312 -2.59375 30.1875 -2.109375 30.59375 -1.734375 C 31 -1.359375 31.539062 -1.03125 32.21875 -0.75 L 32.90625 -0.484375 L 32.90625 0 L 23.375 0 L 15.5 -16.78125 L 11.875 -16.78125 L 11.875 -3.625 C 11.875 -2.945312 11.976562 -2.394531 12.1875 -1.96875 C 12.40625 -1.539062 12.851562 -1.222656 13.53125 -1.015625 L 14.796875 -0.53125 L 14.796875 0 Z M 11.875 -17.84375 L 14.4375 -17.84375 C 16.988281 -17.84375 18.832031 -18.523438 19.96875 -19.890625 C 21.101562 -21.253906 21.671875 -23.285156 21.671875 -25.984375 C 21.671875 -28.722656 21.140625 -30.753906 20.078125 -32.078125 C 19.015625 -33.410156 17.222656 -34.078125 14.703125 -34.078125 L 11.875 -34.078125 Z M 11.875 -17.84375 "/></g></g></g><g fill="#393536" fill-opacity="1"><g transform="translate(279.324568, 120.939565)"><g><path d="M 1.171875 0 L 1.171875 -0.53125 L 2.390625 -1.015625 C 2.992188 -1.265625 3.410156 -1.59375 3.640625 -2 C 3.878906 -2.40625 4 -2.960938 4 -3.671875 L 4 -31.46875 C 4 -32.175781 3.898438 -32.734375 3.703125 -33.140625 C 3.503906 -33.554688 3.066406 -33.890625 2.390625 -34.140625 L 1.171875 -34.609375 L 1.171875 -35.140625 L 26.671875 -35.140625 L 27 -26.9375 L 26.46875 -26.9375 L 24.171875 -31.953125 C 23.859375 -32.585938 23.519531 -33.097656 23.15625 -33.484375 C 22.800781 -33.878906 22.269531 -34.078125 21.5625 -34.078125 L 11.984375 -34.078125 L 11.984375 -18.6875 L 17.671875 -18.6875 C 18.390625 -18.6875 18.929688 -18.875 19.296875 -19.25 C 19.671875 -19.625 20 -20.128906 20.28125 -20.765625 L 21.359375 -22.890625 L 21.890625 -22.890625 L 21.890625 -13.3125 L 21.359375 -13.3125 L 20.28125 -15.546875 C 19.96875 -16.179688 19.632812 -16.6875 19.28125 -17.0625 C 18.925781 -17.4375 18.390625 -17.625 17.671875 -17.625 L 11.984375 -17.625 L 11.984375 -1.0625 L 22.734375 -1.0625 C 23.441406 -1.0625 23.988281 -1.25 24.375 -1.625 C 24.769531 -2 25.09375 -2.519531 25.34375 -3.1875 L 27.53125 -8.203125 L 28.0625 -8.203125 L 27.75 0 Z M 1.171875 0 "/></g></g></g><g fill="#393536" fill-opacity="1"><g transform="translate(318.831724, 120.939565)"><g><path d="M 12.625 0.953125 C 10.664062 0.953125 8.675781 0.710938 6.65625 0.234375 C 4.632812 -0.242188 2.945312 -0.875 1.59375 -1.65625 L 1.859375 -8.890625 L 2.390625 -8.890625 L 4.046875 -5.4375 C 4.546875 -4.4375 5.078125 -3.554688 5.640625 -2.796875 C 6.210938 -2.035156 6.992188 -1.441406 7.984375 -1.015625 C 8.691406 -0.660156 9.375 -0.421875 10.03125 -0.296875 C 10.6875 -0.171875 11.425781 -0.109375 12.25 -0.109375 C 14.414062 -0.109375 16.128906 -0.691406 17.390625 -1.859375 C 18.648438 -3.035156 19.28125 -4.546875 19.28125 -6.390625 C 19.28125 -8.128906 18.851562 -9.484375 18 -10.453125 C 17.144531 -11.429688 15.773438 -12.382812 13.890625 -13.3125 L 11.71875 -14.265625 C 8.664062 -15.617188 6.273438 -17.171875 4.546875 -18.921875 C 2.828125 -20.679688 1.96875 -23.019531 1.96875 -25.9375 C 1.96875 -28.03125 2.507812 -29.835938 3.59375 -31.359375 C 4.675781 -32.890625 6.179688 -34.0625 8.109375 -34.875 C 10.046875 -35.695312 12.3125 -36.109375 14.90625 -36.109375 C 16.789062 -36.109375 18.578125 -35.859375 20.265625 -35.359375 C 21.953125 -34.859375 23.414062 -34.179688 24.65625 -33.328125 L 24.328125 -26.9375 L 23.796875 -26.9375 L 21.625 -30.9375 C 21.019531 -32.175781 20.414062 -33.050781 19.8125 -33.5625 C 19.207031 -34.082031 18.515625 -34.453125 17.734375 -34.671875 C 17.273438 -34.804688 16.847656 -34.898438 16.453125 -34.953125 C 16.066406 -35.003906 15.570312 -35.03125 14.96875 -35.03125 C 13.15625 -35.03125 11.625 -34.503906 10.375 -33.453125 C 9.132812 -32.410156 8.515625 -31.003906 8.515625 -29.234375 C 8.515625 -27.421875 8.992188 -25.972656 9.953125 -24.890625 C 10.910156 -23.804688 12.316406 -22.84375 14.171875 -22 L 16.609375 -20.921875 C 20.015625 -19.429688 22.460938 -17.84375 23.953125 -16.15625 C 25.453125 -14.46875 26.203125 -12.296875 26.203125 -9.640625 C 26.203125 -6.515625 25.019531 -3.96875 22.65625 -2 C 20.289062 -0.03125 16.945312 0.953125 12.625 0.953125 Z M 12.625 0.953125 "/></g></g></g><g fill="#393536" fill-opacity="1"><g transform="translate(356.528619, 120.939565)"><g><path d="M 12.625 0.953125 C 10.664062 0.953125 8.675781 0.710938 6.65625 0.234375 C 4.632812 -0.242188 2.945312 -0.875 1.59375 -1.65625 L 1.859375 -8.890625 L 2.390625 -8.890625 L 4.046875 -5.4375 C 4.546875 -4.4375 5.078125 -3.554688 5.640625 -2.796875 C 6.210938 -2.035156 6.992188 -1.441406 7.984375 -1.015625 C 8.691406 -0.660156 9.375 -0.421875 10.03125 -0.296875 C 10.6875 -0.171875 11.425781 -0.109375 12.25 -0.109375 C 14.414062 -0.109375 16.128906 -0.691406 17.390625 -1.859375 C 18.648438 -3.035156 19.28125 -4.546875 19.28125 -6.390625 C 19.28125 -8.128906 18.851562 -9.484375 18 -10.453125 C 17.144531 -11.429688 15.773438 -12.382812 13.890625 -13.3125 L 11.71875 -14.265625 C 8.664062 -15.617188 6.273438 -17.171875 4.546875 -18.921875 C 2.828125 -20.679688 1.96875 -23.019531 1.96875 -25.9375 C 1.96875 -28.03125 2.507812 -29.835938 3.59375 -31.359375 C 4.675781 -32.890625 6.179688 -34.0625 8.109375 -34.875 C 10.046875 -35.695312 12.3125 -36.109375 14.90625 -36.109375 C 16.789062 -36.109375 18.578125 -35.859375 20.265625 -35.359375 C 21.953125 -34.859375 23.414062 -34.179688 24.65625 -33.328125 L 24.328125 -26.9375 L 23.796875 -26.9375 L 21.625 -30.9375 C 21.019531 -32.175781 20.414062 -33.050781 19.8125 -33.5625 C 19.207031 -34.082031 18.515625 -34.453125 17.734375 -34.671875 C 17.273438 -34.804688 16.847656 -34.898438 16.453125 -34.953125 C 16.066406 -35.003906 15.570312 -35.03125 14.96875 -35.03125 C 13.15625 -35.03125 11.625 -34.503906 10.375 -33.453125 C 9.132812 -32.410156 8.515625 -31.003906 8.515625 -29.234375 C 8.515625 -27.421875 8.992188 -25.972656 9.953125 -24.890625 C 10.910156 -23.804688 12.316406 -22.84375 14.171875 -22 L 16.609375 -20.921875 C 20.015625 -19.429688 22.460938 -17.84375 23.953125 -16.15625 C 25.453125 -14.46875 26.203125 -12.296875 26.203125 -9.640625 C 26.203125 -6.515625 25.019531 -3.96875 22.65625 -2 C 20.289062 -0.03125 16.945312 0.953125 12.625 0.953125 Z M 12.625 0.953125 "/></g></g></g><g fill="#393536" fill-opacity="1"><g transform="translate(394.225514, 120.939565)"><g><path d="M 17.84375 0.953125 C 15.675781 0.953125 13.585938 0.5625 11.578125 -0.21875 C 9.578125 -1 7.785156 -2.160156 6.203125 -3.703125 C 4.617188 -5.242188 3.363281 -7.164062 2.4375 -9.46875 C 1.519531 -11.78125 1.0625 -14.484375 1.0625 -17.578125 C 1.0625 -20.628906 1.519531 -23.304688 2.4375 -25.609375 C 3.363281 -27.921875 4.625 -29.847656 6.21875 -31.390625 C 7.820312 -32.929688 9.625 -34.101562 11.625 -34.90625 C 13.632812 -35.707031 15.707031 -36.109375 17.84375 -36.109375 C 20.007812 -36.109375 22.09375 -35.722656 24.09375 -34.953125 C 26.101562 -34.191406 27.894531 -33.039062 29.46875 -31.5 C 31.050781 -29.957031 32.300781 -28.019531 33.21875 -25.6875 C 34.144531 -23.363281 34.609375 -20.660156 34.609375 -17.578125 C 34.609375 -14.554688 34.144531 -11.882812 33.21875 -9.5625 C 32.300781 -7.238281 31.050781 -5.300781 29.46875 -3.75 C 27.894531 -2.207031 26.101562 -1.035156 24.09375 -0.234375 C 22.09375 0.554688 20.007812 0.953125 17.84375 0.953125 Z M 17.84375 -0.15625 C 19.789062 -0.15625 21.367188 -0.675781 22.578125 -1.71875 C 23.785156 -2.769531 24.664062 -4.566406 25.21875 -7.109375 C 25.769531 -9.648438 26.046875 -13.140625 26.046875 -17.578125 C 26.046875 -22.046875 25.769531 -25.546875 25.21875 -28.078125 C 24.664062 -30.617188 23.785156 -32.410156 22.578125 -33.453125 C 21.367188 -34.503906 19.789062 -35.03125 17.84375 -35.03125 C 15.925781 -35.03125 14.363281 -34.503906 13.15625 -33.453125 C 11.945312 -32.410156 11.066406 -30.617188 10.515625 -28.078125 C 9.960938 -25.546875 9.6875 -22.046875 9.6875 -17.578125 C 9.6875 -13.140625 9.960938 -9.648438 10.515625 -7.109375 C 11.066406 -4.566406 11.945312 -2.769531 13.15625 -1.71875 C 14.363281 -0.675781 15.925781 -0.15625 17.84375 -0.15625 Z M 17.84375 -0.15625 "/></g></g></g><g clip-path="url(#cff77c885b)"><path fill="#fbb040" d="M 49.445312 123.027344 L 29.636719 102.894531 L 49.582031 82.625 L 53.636719 86.746094 L 37.75 102.894531 L 53.5 118.902344 L 49.445312 123.027344 " fill-opacity="1" fill-rule="nonzero"/></g><g clip-path="url(#628d50859c)"><path fill="#fbb040" d="M 198.210938 115.445312 L 194.515625 120.597656 L 197.28125 123.976562 L 203.402344 115.445312 L 220.019531 115.445312 C 226.097656 115.445312 231.148438 110.832031 231.832031 104.925781 C 228.921875 108.785156 224.300781 111.28125 219.121094 111.28125 L 201.199219 111.28125 Z M 218.902344 93.257812 L 201.445312 93.257812 L 198.421875 97.480469 L 218.902344 97.480469 C 220.0625 97.480469 221.007812 96.527344 221.007812 95.367188 C 221.007812 94.207031 220.0625 93.257812 218.902344 93.257812 Z M 219.121094 103.035156 L 196.925781 103.035156 L 193.902344 107.257812 L 189.082031 113.96875 L 191.847656 117.347656 L 199.09375 107.257812 L 219.121094 107.257812 C 225.660156 107.257812 231.015625 101.90625 231.015625 95.367188 C 231.015625 88.828125 225.660156 83.476562 219.121094 83.476562 L 195.910156 83.476562 L 198.941406 87.695312 L 219.121094 87.695312 C 223.339844 87.695312 226.789062 91.148438 226.789062 95.367188 C 226.789062 99.585938 223.339844 103.035156 219.121094 103.035156 Z M 219.121094 103.035156 " fill-opacity="1" fill-rule="evenodd"/></g><g clip-path="url(#9578e98489)"><path fill="#393536" d="M 428.769531 75 L 428.769531 76.0625 L 426.996094 76.0625 L 426.996094 81 L 425.75 81 L 425.75 76.0625 L 423.96875 76.0625 L 423.96875 75 L 428.769531 75 " fill-opacity="1" fill-rule="nonzero"/></g><g clip-path="url(#c90892d7e5)"><path fill="#393536" d="M 433.429688 75 L 435.210938 75 L 435.210938 81 L 434.058594 81 L 434.058594 76.941406 C 434.058594 76.824219 434.058594 76.660156 434.0625 76.449219 C 434.0625 76.242188 434.066406 76.078125 434.066406 75.964844 L 432.941406 81 L 431.738281 81 L 430.621094 75.964844 C 430.621094 76.078125 430.621094 76.242188 430.625 76.449219 C 430.628906 76.660156 430.628906 76.824219 430.628906 76.941406 L 430.628906 81 L 429.472656 81 L 429.472656 75 L 431.277344 75 L 432.355469 79.71875 L 433.429688 75 " fill-opacity="1" fill-rule="nonzero"/></g><g fill="#fdd79f" fill-opacity="1"><g transform="translate(138.895255, 147.536968)"><g><path d="M 4.796875 0.1875 C 3.960938 0.1875 3.238281 0.0390625 2.625 -0.25 C 2.007812 -0.550781 1.535156 -0.972656 1.203125 -1.515625 C 0.867188 -2.054688 0.703125 -2.679688 0.703125 -3.390625 L 2.125 -3.390625 C 2.125 -2.953125 2.226562 -2.546875 2.4375 -2.171875 C 2.644531 -1.796875 2.941406 -1.5 3.328125 -1.28125 C 3.722656 -1.0625 4.210938 -0.953125 4.796875 -0.953125 C 5.554688 -0.953125 6.144531 -1.132812 6.5625 -1.5 C 6.988281 -1.863281 7.203125 -2.320312 7.203125 -2.875 C 7.203125 -3.320312 7.101562 -3.679688 6.90625 -3.953125 C 6.71875 -4.234375 6.457031 -4.457031 6.125 -4.625 C 5.800781 -4.800781 5.425781 -4.953125 5 -5.078125 C 4.570312 -5.210938 4.125 -5.359375 3.65625 -5.515625 C 2.789062 -5.816406 2.144531 -6.191406 1.71875 -6.640625 C 1.300781 -7.085938 1.09375 -7.671875 1.09375 -8.390625 C 1.082031 -8.992188 1.222656 -9.53125 1.515625 -10 C 1.804688 -10.46875 2.21875 -10.832031 2.75 -11.09375 C 3.28125 -11.351562 3.914062 -11.484375 4.65625 -11.484375 C 5.375 -11.484375 6 -11.347656 6.53125 -11.078125 C 7.0625 -10.816406 7.472656 -10.445312 7.765625 -9.96875 C 8.066406 -9.5 8.222656 -8.960938 8.234375 -8.359375 L 6.8125 -8.359375 C 6.8125 -8.671875 6.726562 -8.976562 6.5625 -9.28125 C 6.40625 -9.59375 6.160156 -9.84375 5.828125 -10.03125 C 5.503906 -10.226562 5.09375 -10.328125 4.59375 -10.328125 C 3.988281 -10.335938 3.488281 -10.179688 3.09375 -9.859375 C 2.695312 -9.535156 2.5 -9.085938 2.5 -8.515625 C 2.5 -8.035156 2.632812 -7.664062 2.90625 -7.40625 C 3.1875 -7.144531 3.570312 -6.929688 4.0625 -6.765625 C 4.5625 -6.597656 5.132812 -6.410156 5.78125 -6.203125 C 6.3125 -6.003906 6.789062 -5.773438 7.21875 -5.515625 C 7.65625 -5.253906 7.992188 -4.921875 8.234375 -4.515625 C 8.484375 -4.109375 8.609375 -3.585938 8.609375 -2.953125 C 8.609375 -2.410156 8.46875 -1.898438 8.1875 -1.421875 C 7.90625 -0.941406 7.476562 -0.550781 6.90625 -0.25 C 6.34375 0.0390625 5.640625 0.1875 4.796875 0.1875 Z M 4.796875 0.1875 "/></g></g></g><g fill="#fdd79f" fill-opacity="1"><g transform="translate(161.141745, 147.536968)"><g><path d="M 6.328125 0.1875 C 5.222656 0.1875 4.25 -0.0546875 3.40625 -0.546875 C 2.570312 -1.035156 1.921875 -1.71875 1.453125 -2.59375 C 0.992188 -3.476562 0.765625 -4.5 0.765625 -5.65625 C 0.765625 -6.800781 0.992188 -7.8125 1.453125 -8.6875 C 1.921875 -9.5625 2.570312 -10.242188 3.40625 -10.734375 C 4.25 -11.234375 5.222656 -11.484375 6.328125 -11.484375 C 7.441406 -11.484375 8.414062 -11.234375 9.25 -10.734375 C 10.082031 -10.242188 10.726562 -9.5625 11.1875 -8.6875 C 11.65625 -7.8125 11.890625 -6.800781 11.890625 -5.65625 C 11.890625 -4.5 11.65625 -3.476562 11.1875 -2.59375 C 10.726562 -1.71875 10.082031 -1.035156 9.25 -0.546875 C 8.414062 -0.0546875 7.441406 0.1875 6.328125 0.1875 Z M 6.328125 -1 C 7.148438 -1 7.875 -1.179688 8.5 -1.546875 C 9.132812 -1.921875 9.625 -2.457031 9.96875 -3.15625 C 10.320312 -3.851562 10.5 -4.6875 10.5 -5.65625 C 10.5 -6.625 10.320312 -7.453125 9.96875 -8.140625 C 9.625 -8.828125 9.132812 -9.351562 8.5 -9.71875 C 7.875 -10.09375 7.148438 -10.28125 6.328125 -10.28125 C 5.492188 -10.28125 4.765625 -10.09375 4.140625 -9.71875 C 3.515625 -9.351562 3.023438 -8.828125 2.671875 -8.140625 C 2.316406 -7.453125 2.140625 -6.625 2.140625 -5.65625 C 2.140625 -4.6875 2.316406 -3.851562 2.671875 -3.15625 C 3.023438 -2.457031 3.515625 -1.921875 4.140625 -1.546875 C 4.765625 -1.179688 5.492188 -1 6.328125 -1 Z M 6.328125 -1 "/></g></g></g><g fill="#fdd79f" fill-opacity="1"><g transform="translate(186.712537, 147.536968)"><g><path d="M 1.1875 0 L 1.1875 -11.296875 L 8.078125 -11.296875 L 8.078125 -10.1875 L 2.546875 -10.1875 L 2.546875 -6.21875 L 7.25 -6.21875 L 7.25 -5.109375 L 2.546875 -5.109375 L 2.546875 0 Z M 1.1875 0 "/></g></g></g><g fill="#fdd79f" fill-opacity="1"><g transform="translate(208.248977, 147.536968)"><g><path d="M 3.84375 0 L 3.84375 -10.1875 L 0.46875 -10.1875 L 0.46875 -11.296875 L 8.578125 -11.296875 L 8.578125 -10.1875 L 5.203125 -10.1875 L 5.203125 0 Z M 3.84375 0 "/></g></g></g><g fill="#fdd79f" fill-opacity="1"><g transform="translate(230.204999, 147.536968)"><g><path d="M 3.515625 0.015625 L 0.421875 -11.296875 L 1.875 -11.296875 L 4.3125 -1.59375 L 7.078125 -11.296875 L 8.59375 -11.296875 L 11.28125 -1.59375 L 13.75 -11.296875 L 15.203125 -11.296875 L 12.046875 0 L 10.484375 0 L 7.796875 -9.328125 L 5.03125 0 Z M 3.515625 0.015625 "/></g></g></g><g fill="#fdd79f" fill-opacity="1"><g transform="translate(258.728945, 147.536968)"><g><path d="M 0.484375 0 L 4.65625 -11.296875 L 6.078125 -11.296875 L 10.234375 0 L 8.796875 0 L 7.765625 -2.90625 L 2.953125 -2.90625 L 1.90625 0 Z M 3.359375 -4 L 7.359375 -4 L 5.359375 -9.59375 Z M 3.359375 -4 "/></g></g></g><g fill="#fdd79f" fill-opacity="1"><g transform="translate(282.363246, 147.536968)"><g><path d="M 1.1875 0 L 1.1875 -11.296875 L 4.84375 -11.296875 C 5.726562 -11.296875 6.445312 -11.148438 7 -10.859375 C 7.5625 -10.566406 7.976562 -10.164062 8.25 -9.65625 C 8.519531 -9.15625 8.65625 -8.597656 8.65625 -7.984375 C 8.65625 -7.273438 8.460938 -6.632812 8.078125 -6.0625 C 7.691406 -5.5 7.097656 -5.097656 6.296875 -4.859375 L 8.765625 0 L 7.171875 0 L 4.875 -4.671875 L 2.546875 -4.671875 L 2.546875 0 Z M 2.546875 -5.734375 L 4.75 -5.734375 C 5.613281 -5.734375 6.242188 -5.941406 6.640625 -6.359375 C 7.046875 -6.773438 7.25 -7.3125 7.25 -7.96875 C 7.25 -8.632812 7.050781 -9.164062 6.65625 -9.5625 C 6.257812 -9.957031 5.617188 -10.15625 4.734375 -10.15625 L 2.546875 -10.15625 Z M 2.546875 -5.734375 "/></g></g></g><g fill="#fdd79f" fill-opacity="1"><g transform="translate(304.851811, 147.536968)"><g><path d="M 1.1875 0 L 1.1875 -11.296875 L 8.1875 -11.296875 L 8.1875 -10.1875 L 2.546875 -10.1875 L 2.546875 -6.25 L 7.703125 -6.25 L 7.703125 -5.15625 L 2.546875 -5.15625 L 2.546875 -1.109375 L 8.1875 -1.109375 L 8.1875 0 Z M 1.1875 0 "/></g></g></g><path stroke-linecap="butt" transform="matrix(1.101055, 0, 0, 1.101055, 6.459542, 129.593769)" fill="none" stroke-linejoin="miter" d="M 123.341778 15.17364 C 122.586111 15.17364 121.92978 15.038826 121.372786 14.765651 C 120.815792 14.492475 120.386516 14.112868 120.081411 13.62328 C 119.779853 13.133693 119.627301 12.566056 119.627301 11.920368 L 120.922224 11.920368 C 120.922224 12.321262 121.010917 12.690226 121.195399 13.027261 C 121.383429 13.364296 121.653057 13.633924 122.00783 13.832597 C 122.366151 14.034817 122.809618 14.134154 123.341778 14.134154 C 124.033586 14.134154 124.569294 13.967411 124.952449 13.637471 C 125.332057 13.303984 125.523634 12.888899 125.523634 12.392217 C 125.523634 11.98068 125.434941 11.65074 125.257554 11.402399 C 125.083715 11.154058 124.846017 10.948289 124.548007 10.795737 C 124.249998 10.636089 123.909415 10.501275 123.522712 10.384199 C 123.136009 10.267124 122.731568 10.13231 122.312935 9.986853 C 121.521791 9.71013 120.932867 9.373095 120.553259 8.968654 C 120.173652 8.564212 119.982074 8.032052 119.982074 7.375721 C 119.971431 6.82937 120.099149 6.343331 120.361682 5.92115 C 120.627762 5.491875 121.000274 5.158388 121.482766 4.92069 C 121.965257 4.682991 122.543538 4.562368 123.206964 4.562368 C 123.859747 4.562368 124.430932 4.686539 124.913424 4.927785 C 125.399464 5.172579 125.775523 5.509613 126.041603 5.942437 C 126.311231 6.371713 126.45314 6.857752 126.460236 7.404103 L 125.172409 7.404103 C 125.172409 7.120284 125.097906 6.840013 124.952449 6.56329 C 124.803444 6.286567 124.583485 6.059512 124.285475 5.885673 C 123.987466 5.708286 123.611406 5.619593 123.160844 5.619593 C 122.603849 5.60895 122.149739 5.747312 121.791418 6.041773 C 121.433097 6.336235 121.255711 6.740677 121.255711 7.258646 C 121.255711 7.698565 121.379881 8.039147 121.628223 8.26975 C 121.880112 8.503901 122.22779 8.699026 122.678352 8.851579 C 123.128914 9.000583 123.646883 9.174422 124.232259 9.369548 C 124.721846 9.546934 125.161765 9.752703 125.552016 9.986853 C 125.942267 10.221004 126.247372 10.522561 126.467331 10.895073 C 126.687291 11.267585 126.797271 11.739434 126.797271 12.314167 C 126.797271 12.803754 126.669552 13.268507 126.414115 13.704878 C 126.162226 14.137702 125.779071 14.492475 125.26465 14.765651 C 124.753776 15.038826 124.111636 15.17364 123.341778 15.17364 Z M 144.936833 15.17364 C 143.929277 15.17364 143.045891 14.95368 142.290224 14.510214 C 141.531009 14.063199 140.942085 13.442346 140.516357 12.640558 C 140.090629 11.83877 139.881313 10.91636 139.881313 9.86623 C 139.881313 8.823197 140.090629 7.900786 140.516357 7.106094 C 140.942085 6.307853 141.531009 5.683452 142.290224 5.236438 C 143.045891 4.785876 143.929277 4.562368 144.936833 4.562368 C 145.955033 4.562368 146.838418 4.785876 147.597633 5.236438 C 148.353301 5.683452 148.942224 6.307853 149.360857 7.106094 C 149.783037 7.900786 149.995901 8.823197 149.995901 9.86623 C 149.995901 10.91636 149.783037 11.83877 149.360857 12.640558 C 148.942224 13.442346 148.353301 14.063199 147.597633 14.510214 C 146.838418 14.95368 145.955033 15.17364 144.936833 15.17364 Z M 144.936833 14.091581 C 145.688953 14.091581 146.348831 13.92129 146.920016 13.587803 C 147.491201 13.247221 147.938216 12.764729 148.253964 12.133232 C 148.57326 11.501736 148.72936 10.749616 148.72936 9.86623 C 148.72936 8.98994 148.57326 8.237821 148.253964 7.613419 C 147.938216 6.985471 147.491201 6.502979 146.920016 6.165944 C 146.348831 5.828909 145.688953 5.662166 144.936833 5.662166 C 144.184714 5.662166 143.521287 5.828909 142.946554 6.165944 C 142.375369 6.502979 141.931903 6.985471 141.616154 7.613419 C 141.296858 8.237821 141.140758 8.98994 141.140758 9.86623 C 141.140758 10.749616 141.296858 11.501736 141.616154 12.133232 C 141.931903 12.764729 142.375369 13.247221 142.946554 13.587803 C 143.521287 13.92129 144.184714 14.091581 144.936833 14.091581 Z M 163.498576 14.999801 L 163.498576 4.739755 L 169.742587 4.739755 L 169.742587 5.747312 L 164.729639 5.747312 L 164.729639 9.355357 L 168.994015 9.355357 L 168.994015 10.355818 L 164.729639 10.355818 L 164.729639 14.999801 Z M 185.462595 14.999801 L 185.462595 5.747312 L 182.397353 5.747312 L 182.397353 4.739755 L 189.758901 4.739755 L 189.758901 5.747312 L 186.693659 5.747312 L 186.693659 14.999801 Z M 205.109945 15.013992 L 202.293044 4.739755 L 203.612801 4.739755 L 205.830135 13.54523 L 208.349025 4.739755 L 209.711355 4.739755 L 212.159292 13.54523 L 214.405007 4.739755 L 215.721216 4.739755 L 212.8511 14.999801 L 211.442649 14.999801 L 208.994713 6.527813 L 206.486465 14.999801 Z M 228.258907 14.999801 L 232.044339 4.739755 L 233.346357 4.739755 L 237.11405 14.999801 L 235.808484 14.999801 L 234.871883 12.363835 L 230.504623 12.363835 L 229.546734 14.999801 Z M 230.870039 11.363374 L 234.506466 11.363374 L 232.686479 6.293662 Z M 250.368384 14.999801 L 250.368384 4.739755 L 253.681967 4.739755 C 254.483755 4.739755 255.140085 4.871021 255.647411 5.137101 C 256.158285 5.399634 256.530797 5.761502 256.775591 6.21916 C 257.020384 6.676818 257.141007 7.184144 257.141007 7.741138 C 257.141007 8.386825 256.967168 8.968654 256.623038 9.486623 C 256.27536 10.004592 255.736105 10.373556 255.001724 10.58642 L 257.243892 14.999801 L 255.796416 14.999801 L 253.713896 10.763807 L 251.599447 10.763807 L 251.599447 14.999801 Z M 251.599447 9.795276 L 253.593274 9.795276 C 254.387966 9.795276 254.962699 9.603698 255.324568 9.224091 C 255.686436 8.840935 255.867371 8.354896 255.867371 7.758877 C 255.867371 7.152214 255.686436 6.67327 255.331663 6.318497 C 254.973342 5.960176 254.391514 5.779241 253.579083 5.779241 L 251.599447 5.779241 Z M 270.792687 14.999801 L 270.792687 4.739755 L 277.14313 4.739755 L 277.14313 5.747312 L 272.02375 5.747312 L 272.02375 9.326975 L 276.703211 9.326975 L 276.703211 10.323888 L 272.02375 10.323888 L 272.02375 13.988697 L 277.14313 13.988697 L 277.14313 14.999801 Z M 270.792687 14.999801 " stroke="#eeb30d" stroke-width="0.504168" stroke-opacity="1" stroke-miterlimit="4"/></svg>