<svg xmlns="http://www.w3.org/2000/svg" xmlns:xlink="http://www.w3.org/1999/xlink" width="600" zoomAndPan="magnify" viewBox="0 0 450 149.999998" height="200" preserveAspectRatio="xMidYMid meet" version="1.0"><defs><g/><clipPath id="ef678d6ea3"><path d="M 29.632812 54.773438 L 53.632812 54.773438 L 53.632812 95.273438 L 29.632812 95.273438 Z M 29.632812 54.773438 " clip-rule="nonzero"/></clipPath><clipPath id="86d33979e2"><path d="M 189.082031 55.671875 L 231.832031 55.671875 L 231.832031 96.171875 L 189.082031 96.171875 Z M 189.082031 55.671875 " clip-rule="nonzero"/></clipPath><clipPath id="5aeebb1e8e"><path d="M 423.96875 48.535156 L 428.785156 48.535156 L 428.785156 54.53125 L 423.96875 54.53125 Z M 423.96875 48.535156 " clip-rule="nonzero"/></clipPath><clipPath id="1fc3d2da65"><path d="M 429.460938 48.535156 L 435.210938 48.535156 L 435.210938 54.53125 L 429.460938 54.53125 Z M 429.460938 48.535156 " clip-rule="nonzero"/></clipPath></defs><g fill="#393536" fill-opacity="1"><g transform="translate(20.081659, 93.135038)"><g/></g></g><g fill="#393536" fill-opacity="1"><g transform="translate(41.645874, 93.135038)"><g/></g></g><g fill="#393536" fill-opacity="1"><g transform="translate(63.208954, 93.135038)"><g><path d="M 17.84375 0.953125 C 15.675781 0.953125 13.585938 0.5625 11.578125 -0.21875 C 9.578125 -1 7.785156 -2.160156 6.203125 -3.703125 C 4.617188 -5.242188 3.363281 -7.164062 2.4375 -9.46875 C 1.519531 -11.78125 1.0625 -14.484375 1.0625 -17.578125 C 1.0625 -20.628906 1.519531 -23.304688 2.4375 -25.609375 C 3.363281 -27.921875 4.625 -29.847656 6.21875 -31.390625 C 7.820312 -32.929688 9.625 -34.101562 11.625 -34.90625 C 13.632812 -35.707031 15.707031 -36.109375 17.84375 -36.109375 C 20.007812 -36.109375 22.09375 -35.722656 24.09375 -34.953125 C 26.101562 -34.191406 27.894531 -33.039062 29.46875 -31.5 C 31.050781 -29.957031 32.300781 -28.019531 33.21875 -25.6875 C 34.144531 -23.363281 34.609375 -20.660156 34.609375 -17.578125 C 34.609375 -14.554688 34.144531 -11.882812 33.21875 -9.5625 C 32.300781 -7.238281 31.050781 -5.300781 29.46875 -3.75 C 27.894531 -2.207031 26.101562 -1.035156 24.09375 -0.234375 C 22.09375 0.554688 20.007812 0.953125 17.84375 0.953125 Z M 17.84375 -0.15625 C 19.789062 -0.15625 21.367188 -0.675781 22.578125 -1.71875 C 23.785156 -2.769531 24.664062 -4.566406 25.21875 -7.109375 C 25.769531 -9.648438 26.046875 -13.140625 26.046875 -17.578125 C 26.046875 -22.046875 25.769531 -25.546875 25.21875 -28.078125 C 24.664062 -30.617188 23.785156 -32.410156 22.578125 -33.453125 C 21.367188 -34.503906 19.789062 -35.03125 17.84375 -35.03125 C 15.925781 -35.03125 14.363281 -34.503906 13.15625 -33.453125 C 11.945312 -32.410156 11.066406 -30.617188 10.515625 -28.078125 C 9.960938 -25.546875 9.6875 -22.046875 9.6875 -17.578125 C 9.6875 -13.140625 9.960938 -9.648438 10.515625 -7.109375 C 11.066406 -4.566406 11.945312 -2.769531 13.15625 -1.71875 C 14.363281 -0.675781 15.925781 -0.15625 17.84375 -0.15625 Z M 17.84375 -0.15625 "/></g></g></g><g fill="#393536" fill-opacity="1"><g transform="translate(108.83908, 93.135038)"><g><path d="M 1.171875 0 L 1.171875 -0.53125 L 2.296875 -0.953125 C 3.429688 -1.421875 4 -2.328125 4 -3.671875 L 4 -31.46875 C 4 -32.882812 3.429688 -33.789062 2.296875 -34.1875 L 1.171875 -34.609375 L 1.171875 -35.140625 L 15.234375 -35.140625 C 18.992188 -35.140625 22.226562 -34.4375 24.9375 -33.03125 C 27.65625 -31.632812 29.75 -29.628906 31.21875 -27.015625 C 32.695312 -24.410156 33.4375 -21.28125 33.4375 -17.625 C 33.4375 -13.894531 32.640625 -10.71875 31.046875 -8.09375 C 29.453125 -5.46875 27.222656 -3.460938 24.359375 -2.078125 C 21.503906 -0.691406 18.140625 0 14.265625 0 Z M 11.984375 -1.0625 L 14.265625 -1.0625 C 16.828125 -1.0625 18.890625 -1.566406 20.453125 -2.578125 C 22.015625 -3.585938 23.15625 -5.289062 23.875 -7.6875 C 24.601562 -10.082031 24.96875 -13.378906 24.96875 -17.578125 C 24.96875 -21.765625 24.601562 -25.054688 23.875 -27.453125 C 23.15625 -29.847656 22.03125 -31.550781 20.5 -32.5625 C 18.976562 -33.570312 16.972656 -34.078125 14.484375 -34.078125 L 11.984375 -34.078125 Z M 11.984375 -1.0625 "/></g></g></g><g fill="#393536" fill-opacity="1"><g transform="translate(153.297859, 93.135038)"><g><path d="M 1.171875 0 L 1.171875 -0.53125 L 2.390625 -1.015625 C 2.992188 -1.265625 3.410156 -1.59375 3.640625 -2 C 3.878906 -2.40625 4 -2.960938 4 -3.671875 L 4 -31.46875 C 4 -32.175781 3.898438 -32.734375 3.703125 -33.140625 C 3.503906 -33.554688 3.066406 -33.890625 2.390625 -34.140625 L 1.171875 -34.609375 L 1.171875 -35.140625 L 26.671875 -35.140625 L 27 -26.9375 L 26.46875 -26.9375 L 24.171875 -31.953125 C 23.859375 -32.585938 23.519531 -33.097656 23.15625 -33.484375 C 22.800781 -33.878906 22.269531 -34.078125 21.5625 -34.078125 L 11.984375 -34.078125 L 11.984375 -18.6875 L 17.671875 -18.6875 C 18.390625 -18.6875 18.929688 -18.875 19.296875 -19.25 C 19.671875 -19.625 20 -20.128906 20.28125 -20.765625 L 21.359375 -22.890625 L 21.890625 -22.890625 L 21.890625 -13.3125 L 21.359375 -13.3125 L 20.28125 -15.546875 C 19.96875 -16.179688 19.632812 -16.6875 19.28125 -17.0625 C 18.925781 -17.4375 18.390625 -17.625 17.671875 -17.625 L 11.984375 -17.625 L 11.984375 -1.0625 L 22.734375 -1.0625 C 23.441406 -1.0625 23.988281 -1.25 24.375 -1.625 C 24.769531 -2 25.09375 -2.519531 25.34375 -3.1875 L 27.53125 -8.203125 L 28.0625 -8.203125 L 27.75 0 Z M 1.171875 0 "/></g></g></g><g fill="#393536" fill-opacity="1"><g transform="translate(192.803361, 93.135038)"><g/></g></g><g fill="#393536" fill-opacity="1"><g transform="translate(214.367576, 93.135038)"><g/></g></g><g fill="#393536" fill-opacity="1"><g transform="translate(235.930655, 93.135038)"><g><path d="M 1.171875 0 L 1.171875 -0.53125 L 2.296875 -0.90625 C 3.003906 -1.15625 3.460938 -1.484375 3.671875 -1.890625 C 3.890625 -2.296875 4 -2.875 4 -3.625 L 4 -31.46875 C 4 -32.175781 3.898438 -32.734375 3.703125 -33.140625 C 3.503906 -33.554688 3.066406 -33.890625 2.390625 -34.140625 L 1.171875 -34.609375 L 1.171875 -35.140625 L 16.40625 -35.140625 C 20.59375 -35.140625 23.800781 -34.347656 26.03125 -32.765625 C 28.269531 -31.191406 29.390625 -29.003906 29.390625 -26.203125 C 29.390625 -24.640625 28.800781 -23.078125 27.625 -21.515625 C 26.457031 -19.953125 24.613281 -18.742188 22.09375 -17.890625 L 29.5 -3.1875 C 29.820312 -2.59375 30.1875 -2.109375 30.59375 -1.734375 C 31 -1.359375 31.539062 -1.03125 32.21875 -0.75 L 32.90625 -0.484375 L 32.90625 0 L 23.375 0 L 15.5 -16.78125 L 11.875 -16.78125 L 11.875 -3.625 C 11.875 -2.945312 11.976562 -2.394531 12.1875 -1.96875 C 12.40625 -1.539062 12.851562 -1.222656 13.53125 -1.015625 L 14.796875 -0.53125 L 14.796875 0 Z M 11.875 -17.84375 L 14.4375 -17.84375 C 16.988281 -17.84375 18.832031 -18.523438 19.96875 -19.890625 C 21.101562 -21.253906 21.671875 -23.285156 21.671875 -25.984375 C 21.671875 -28.722656 21.140625 -30.753906 20.078125 -32.078125 C 19.015625 -33.410156 17.222656 -34.078125 14.703125 -34.078125 L 11.875 -34.078125 Z M 11.875 -17.84375 "/></g></g></g><g fill="#393536" fill-opacity="1"><g transform="translate(279.324568, 93.135038)"><g><path d="M 1.171875 0 L 1.171875 -0.53125 L 2.390625 -1.015625 C 2.992188 -1.265625 3.410156 -1.59375 3.640625 -2 C 3.878906 -2.40625 4 -2.960938 4 -3.671875 L 4 -31.46875 C 4 -32.175781 3.898438 -32.734375 3.703125 -33.140625 C 3.503906 -33.554688 3.066406 -33.890625 2.390625 -34.140625 L 1.171875 -34.609375 L 1.171875 -35.140625 L 26.671875 -35.140625 L 27 -26.9375 L 26.46875 -26.9375 L 24.171875 -31.953125 C 23.859375 -32.585938 23.519531 -33.097656 23.15625 -33.484375 C 22.800781 -33.878906 22.269531 -34.078125 21.5625 -34.078125 L 11.984375 -34.078125 L 11.984375 -18.6875 L 17.671875 -18.6875 C 18.390625 -18.6875 18.929688 -18.875 19.296875 -19.25 C 19.671875 -19.625 20 -20.128906 20.28125 -20.765625 L 21.359375 -22.890625 L 21.890625 -22.890625 L 21.890625 -13.3125 L 21.359375 -13.3125 L 20.28125 -15.546875 C 19.96875 -16.179688 19.632812 -16.6875 19.28125 -17.0625 C 18.925781 -17.4375 18.390625 -17.625 17.671875 -17.625 L 11.984375 -17.625 L 11.984375 -1.0625 L 22.734375 -1.0625 C 23.441406 -1.0625 23.988281 -1.25 24.375 -1.625 C 24.769531 -2 25.09375 -2.519531 25.34375 -3.1875 L 27.53125 -8.203125 L 28.0625 -8.203125 L 27.75 0 Z M 1.171875 0 "/></g></g></g><g fill="#393536" fill-opacity="1"><g transform="translate(318.831724, 93.135038)"><g><path d="M 12.625 0.953125 C 10.664062 0.953125 8.675781 0.710938 6.65625 0.234375 C 4.632812 -0.242188 2.945312 -0.875 1.59375 -1.65625 L 1.859375 -8.890625 L 2.390625 -8.890625 L 4.046875 -5.4375 C 4.546875 -4.4375 5.078125 -3.554688 5.640625 -2.796875 C 6.210938 -2.035156 6.992188 -1.441406 7.984375 -1.015625 C 8.691406 -0.660156 9.375 -0.421875 10.03125 -0.296875 C 10.6875 -0.171875 11.425781 -0.109375 12.25 -0.109375 C 14.414062 -0.109375 16.128906 -0.691406 17.390625 -1.859375 C 18.648438 -3.035156 19.28125 -4.546875 19.28125 -6.390625 C 19.28125 -8.128906 18.851562 -9.484375 18 -10.453125 C 17.144531 -11.429688 15.773438 -12.382812 13.890625 -13.3125 L 11.71875 -14.265625 C 8.664062 -15.617188 6.273438 -17.171875 4.546875 -18.921875 C 2.828125 -20.679688 1.96875 -23.019531 1.96875 -25.9375 C 1.96875 -28.03125 2.507812 -29.835938 3.59375 -31.359375 C 4.675781 -32.890625 6.179688 -34.0625 8.109375 -34.875 C 10.046875 -35.695312 12.3125 -36.109375 14.90625 -36.109375 C 16.789062 -36.109375 18.578125 -35.859375 20.265625 -35.359375 C 21.953125 -34.859375 23.414062 -34.179688 24.65625 -33.328125 L 24.328125 -26.9375 L 23.796875 -26.9375 L 21.625 -30.9375 C 21.019531 -32.175781 20.414062 -33.050781 19.8125 -33.5625 C 19.207031 -34.082031 18.515625 -34.453125 17.734375 -34.671875 C 17.273438 -34.804688 16.847656 -34.898438 16.453125 -34.953125 C 16.066406 -35.003906 15.570312 -35.03125 14.96875 -35.03125 C 13.15625 -35.03125 11.625 -34.503906 10.375 -33.453125 C 9.132812 -32.410156 8.515625 -31.003906 8.515625 -29.234375 C 8.515625 -27.421875 8.992188 -25.972656 9.953125 -24.890625 C 10.910156 -23.804688 12.316406 -22.84375 14.171875 -22 L 16.609375 -20.921875 C 20.015625 -19.429688 22.460938 -17.84375 23.953125 -16.15625 C 25.453125 -14.46875 26.203125 -12.296875 26.203125 -9.640625 C 26.203125 -6.515625 25.019531 -3.96875 22.65625 -2 C 20.289062 -0.03125 16.945312 0.953125 12.625 0.953125 Z M 12.625 0.953125 "/></g></g></g><g fill="#393536" fill-opacity="1"><g transform="translate(356.528619, 93.135038)"><g><path d="M 12.625 0.953125 C 10.664062 0.953125 8.675781 0.710938 6.65625 0.234375 C 4.632812 -0.242188 2.945312 -0.875 1.59375 -1.65625 L 1.859375 -8.890625 L 2.390625 -8.890625 L 4.046875 -5.4375 C 4.546875 -4.4375 5.078125 -3.554688 5.640625 -2.796875 C 6.210938 -2.035156 6.992188 -1.441406 7.984375 -1.015625 C 8.691406 -0.660156 9.375 -0.421875 10.03125 -0.296875 C 10.6875 -0.171875 11.425781 -0.109375 12.25 -0.109375 C 14.414062 -0.109375 16.128906 -0.691406 17.390625 -1.859375 C 18.648438 -3.035156 19.28125 -4.546875 19.28125 -6.390625 C 19.28125 -8.128906 18.851562 -9.484375 18 -10.453125 C 17.144531 -11.429688 15.773438 -12.382812 13.890625 -13.3125 L 11.71875 -14.265625 C 8.664062 -15.617188 6.273438 -17.171875 4.546875 -18.921875 C 2.828125 -20.679688 1.96875 -23.019531 1.96875 -25.9375 C 1.96875 -28.03125 2.507812 -29.835938 3.59375 -31.359375 C 4.675781 -32.890625 6.179688 -34.0625 8.109375 -34.875 C 10.046875 -35.695312 12.3125 -36.109375 14.90625 -36.109375 C 16.789062 -36.109375 18.578125 -35.859375 20.265625 -35.359375 C 21.953125 -34.859375 23.414062 -34.179688 24.65625 -33.328125 L 24.328125 -26.9375 L 23.796875 -26.9375 L 21.625 -30.9375 C 21.019531 -32.175781 20.414062 -33.050781 19.8125 -33.5625 C 19.207031 -34.082031 18.515625 -34.453125 17.734375 -34.671875 C 17.273438 -34.804688 16.847656 -34.898438 16.453125 -34.953125 C 16.066406 -35.003906 15.570312 -35.03125 14.96875 -35.03125 C 13.15625 -35.03125 11.625 -34.503906 10.375 -33.453125 C 9.132812 -32.410156 8.515625 -31.003906 8.515625 -29.234375 C 8.515625 -27.421875 8.992188 -25.972656 9.953125 -24.890625 C 10.910156 -23.804688 12.316406 -22.84375 14.171875 -22 L 16.609375 -20.921875 C 20.015625 -19.429688 22.460938 -17.84375 23.953125 -16.15625 C 25.453125 -14.46875 26.203125 -12.296875 26.203125 -9.640625 C 26.203125 -6.515625 25.019531 -3.96875 22.65625 -2 C 20.289062 -0.03125 16.945312 0.953125 12.625 0.953125 Z M 12.625 0.953125 "/></g></g></g><g fill="#393536" fill-opacity="1"><g transform="translate(394.225514, 93.135038)"><g><path d="M 17.84375 0.953125 C 15.675781 0.953125 13.585938 0.5625 11.578125 -0.21875 C 9.578125 -1 7.785156 -2.160156 6.203125 -3.703125 C 4.617188 -5.242188 3.363281 -7.164062 2.4375 -9.46875 C 1.519531 -11.78125 1.0625 -14.484375 1.0625 -17.578125 C 1.0625 -20.628906 1.519531 -23.304688 2.4375 -25.609375 C 3.363281 -27.921875 4.625 -29.847656 6.21875 -31.390625 C 7.820312 -32.929688 9.625 -34.101562 11.625 -34.90625 C 13.632812 -35.707031 15.707031 -36.109375 17.84375 -36.109375 C 20.007812 -36.109375 22.09375 -35.722656 24.09375 -34.953125 C 26.101562 -34.191406 27.894531 -33.039062 29.46875 -31.5 C 31.050781 -29.957031 32.300781 -28.019531 33.21875 -25.6875 C 34.144531 -23.363281 34.609375 -20.660156 34.609375 -17.578125 C 34.609375 -14.554688 34.144531 -11.882812 33.21875 -9.5625 C 32.300781 -7.238281 31.050781 -5.300781 29.46875 -3.75 C 27.894531 -2.207031 26.101562 -1.035156 24.09375 -0.234375 C 22.09375 0.554688 20.007812 0.953125 17.84375 0.953125 Z M 17.84375 -0.15625 C 19.789062 -0.15625 21.367188 -0.675781 22.578125 -1.71875 C 23.785156 -2.769531 24.664062 -4.566406 25.21875 -7.109375 C 25.769531 -9.648438 26.046875 -13.140625 26.046875 -17.578125 C 26.046875 -22.046875 25.769531 -25.546875 25.21875 -28.078125 C 24.664062 -30.617188 23.785156 -32.410156 22.578125 -33.453125 C 21.367188 -34.503906 19.789062 -35.03125 17.84375 -35.03125 C 15.925781 -35.03125 14.363281 -34.503906 13.15625 -33.453125 C 11.945312 -32.410156 11.066406 -30.617188 10.515625 -28.078125 C 9.960938 -25.546875 9.6875 -22.046875 9.6875 -17.578125 C 9.6875 -13.140625 9.960938 -9.648438 10.515625 -7.109375 C 11.066406 -4.566406 11.945312 -2.769531 13.15625 -1.71875 C 14.363281 -0.675781 15.925781 -0.15625 17.84375 -0.15625 Z M 17.84375 -0.15625 "/></g></g></g><g clip-path="url(#ef678d6ea3)"><path fill="#fbb040" d="M 49.445312 95.222656 L 29.636719 75.089844 L 49.582031 54.820312 L 53.636719 58.941406 L 37.75 75.089844 L 53.5 91.097656 L 49.445312 95.222656 " fill-opacity="1" fill-rule="nonzero"/></g><g clip-path="url(#86d33979e2)"><path fill="#fbb040" d="M 198.210938 87.640625 L 194.515625 92.792969 L 197.28125 96.171875 L 203.402344 87.640625 L 220.019531 87.640625 C 226.097656 87.640625 231.148438 83.027344 231.832031 77.121094 C 228.921875 80.980469 224.300781 83.476562 219.121094 83.476562 L 201.199219 83.476562 Z M 218.902344 65.453125 L 201.445312 65.453125 L 198.421875 69.675781 L 218.902344 69.675781 C 220.0625 69.675781 221.007812 68.722656 221.007812 67.5625 C 221.007812 66.402344 220.0625 65.453125 218.902344 65.453125 Z M 219.121094 75.230469 L 196.925781 75.230469 L 193.902344 79.453125 L 189.082031 86.164062 L 191.847656 89.542969 L 199.09375 79.453125 L 219.121094 79.453125 C 225.660156 79.453125 231.015625 74.101562 231.015625 67.5625 C 231.015625 61.023438 225.660156 55.671875 219.121094 55.671875 L 195.910156 55.671875 L 198.941406 59.890625 L 219.121094 59.890625 C 223.339844 59.890625 226.789062 63.34375 226.789062 67.5625 C 226.789062 71.78125 223.339844 75.230469 219.121094 75.230469 Z M 219.121094 75.230469 " fill-opacity="1" fill-rule="evenodd"/></g><g clip-path="url(#5aeebb1e8e)"><path fill="#393536" d="M 428.769531 48.535156 L 428.769531 49.59375 L 426.996094 49.59375 L 426.996094 54.53125 L 425.75 54.53125 L 425.75 49.59375 L 423.96875 49.59375 L 423.96875 48.535156 L 428.769531 48.535156 " fill-opacity="1" fill-rule="nonzero"/></g><g clip-path="url(#1fc3d2da65)"><path fill="#393536" d="M 433.429688 48.535156 L 435.210938 48.535156 L 435.210938 54.53125 L 434.058594 54.53125 L 434.058594 50.476562 C 434.058594 50.359375 434.058594 50.195312 434.0625 49.984375 C 434.0625 49.773438 434.066406 49.613281 434.066406 49.496094 L 432.941406 54.53125 L 431.738281 54.53125 L 430.621094 49.496094 C 430.621094 49.613281 430.621094 49.773438 430.625 49.984375 C 430.628906 50.195312 430.628906 50.359375 430.628906 50.476562 L 430.628906 54.53125 L 429.472656 54.53125 L 429.472656 48.535156 L 431.277344 48.535156 L 432.355469 53.25 L 433.429688 48.535156 " fill-opacity="1" fill-rule="nonzero"/></g></svg>